<svg baseProfile="full" height="1024px" version="1.1" width="1024px" xmlns="http://www.w3.org/2000/svg" xmlns:ev="http://www.w3.org/2001/xml-events" xmlns:xlink="http://www.w3.org/1999/xlink"><defs /><g id="layer_0"><polyline fill="none" points="339,711 338,712 332,712 331,713 327,713 326,714 322,714 321,715 320,715 319,716 317,716 316,717 315,717 314,718 312,718 310,720 309,720 308,721 307,721 305,723 304,723 298,729 298,730 297,731 297,732 296,733 296,735 295,736 295,743 297,745 297,746 298,746 298,741 299,740 299,738 300,737 301,738 301,739 302,738 303,739 304,738 305,738 309,734 310,734 311,733 312,733 313,732 314,732 315,731 316,732 317,731 318,732 318,733 319,734 319,735 320,736 320,737 321,738 321,740 322,741 322,742 321,743 320,742 319,742 318,741 319,742 319,743 320,744 320,746 321,747 321,748 322,748 324,750 324,751 326,753 326,754 327,755 327,756 330,759 330,760 334,764 334,765 336,767 336,768 339,771 339,772 342,775 342,776 343,776 348,781 348,782 349,782 350,783 350,784 351,784 356,789 357,789 360,792 361,792 365,796 366,796 371,801 372,801 375,804 376,804 379,807 380,807 381,808 382,808 384,810 385,810 387,812 388,812 392,816 393,816 394,817 395,817 397,819 398,819 400,821 401,821 404,824 405,824 408,827 409,827 411,829 412,829 413,830 413,829 414,828 415,829 415,831 416,832 416,833 417,834 417,835 419,837 419,838 422,841 422,842 424,844 424,845 426,847 426,848 434,856 434,857 443,866 444,866 447,869 448,869 449,870 450,870 452,872 451,873 452,874 451,875 453,877 454,877 455,878 455,880 457,880 458,881 459,881 460,882 462,882 463,883 465,883 466,884 467,884 468,885 471,885 472,886 473,886 474,887 478,887 479,888 484,888 485,889 513,889 514,888 518,888 519,887 521,887 522,886 525,886 528,883 531,883 532,882 533,882 534,881 533,880 534,879 535,879 536,878 537,879 538,879 539,878 540,878 544,874 544,873 547,870 546,869 549,866 550,866 553,863 554,863 561,856 562,857 563,856 562,855 563,854 564,854 564,852 565,851 566,852 565,851 568,848 568,847 570,845 570,844 572,842 572,841 574,839 574,838 575,837 575,836 576,835 576,834 578,832 578,831 579,830 580,831 582,829 584,829 592,821 593,821 594,820 595,820 598,817 599,817 601,815 602,815 603,814 604,814 605,813 606,813 608,811 609,811 611,809 612,809 613,808 614,808 616,806 617,806 618,805 619,805 622,802 623,802 625,800 626,800 629,797 630,797 633,794 634,794 639,789 640,789 644,785 646,785 648,783 647,782 657,772 657,771 658,770 659,770 662,767 662,766 667,761 667,760 670,757 670,756 673,753 673,752 674,751 674,750 678,746 678,745 680,743 680,742 681,741 681,740 682,739 682,738 684,736 687,736 688,737 689,737 690,738 691,738 692,739 693,739 694,740 696,740 697,739 698,739 699,740 698,741 699,741 699,740 700,739 701,740 701,744 702,745 704,743 704,737 703,736 703,734 702,733 702,732 700,730 700,729 694,723 693,723 691,721 690,721 689,720 688,720 687,719 685,719 684,718 683,718 682,717 681,717 680,716 677,716 676,715 673,715 672,714 670,714 669,713 665,713 664,712 647,712 646,713 644,713 643,714 642,714 641,715 645,715 646,716 646,717 649,717 650,718 651,717 652,717 653,716 655,716 656,717 655,718 654,718 654,719 656,717 659,717 660,718 661,718 662,719 661,720 660,720 661,720 662,719 664,719 665,720 667,720 668,721 667,722 668,723 668,724 669,724 670,725 671,724 672,725 672,726 671,727 671,729 670,730 670,731 669,732 669,733 667,735 667,736 663,740 663,741 649,755 648,755 642,761 641,761 638,764 637,764 635,766 634,766 632,768 631,768 628,771 627,771 625,773 624,773 622,775 621,775 620,776 619,776 618,777 617,777 615,779 613,779 611,781 610,781 609,782 608,782 607,783 606,783 605,784 604,784 603,785 602,785 601,786 600,786 599,787 598,787 597,788 596,788 595,789 593,789 592,790 591,790 590,791 588,791 587,792 586,792 585,793 581,793 580,794 579,794 578,795 577,795 576,796 574,796 573,797 571,797 570,798 567,798 566,799 563,799 562,800 560,800 559,801 556,801 555,802 552,802 551,803 547,803 546,804 540,804 539,805 535,805 534,806 528,806 527,807 519,807 518,808 510,808 509,809 472,809 471,808 465,808 464,807 458,807 457,806 451,806 450,805 446,805 445,804 441,804 440,803 438,803 437,802 433,802 432,801 429,801 428,800 425,800 424,799 422,799 421,798 419,798 418,797 417,797 416,796 414,796 413,795 411,795 410,794 409,794 408,793 407,793 406,792 404,792 403,791 402,791 401,790 400,790 399,789 397,789 396,788 395,788 394,787 393,787 392,786 391,786 390,785 389,785 388,784 387,784 386,783 385,783 384,782 383,782 382,781 381,781 379,779 378,779 377,778 376,778 375,777 374,777 372,775 371,775 370,774 369,774 367,772 366,772 365,771 364,771 362,769 361,769 358,766 357,766 354,763 353,763 347,757 346,757 343,754 343,753 341,751 340,751 339,750 339,749 334,744 334,743 329,738 329,737 327,735 327,734 326,733 326,731 327,730 326,731 325,730 325,729 326,728 326,727 327,726 327,725 329,723 330,723 331,722 334,722 335,721 336,722 337,722 338,721 340,721 341,720 343,720 344,719 345,719 346,718 348,718 349,717 350,717 351,716 354,716 354,715 352,713 350,713 349,712 346,712 345,711 339,711" stroke="red" /><polyline fill="none" points="487,661 488,660 496,660 497,661 509,661 510,662 515,662 516,663 520,663 521,664 523,664 524,665 527,665 528,666 529,666 530,667 531,667 534,670 534,672 533,673 525,673 524,672 518,672 517,671 500,671 499,670 486,670 485,671 478,671 477,672 474,672 473,673 470,673 469,674 465,674 464,673 461,673 460,672 460,671 459,670 459,669 462,666 463,666 464,665 466,665 467,664 469,664 470,663 473,663 474,662 478,662 479,661 487,661" stroke="red" /><polyline fill="none" points="480,625 479,626 473,626 472,627 468,627 467,628 464,628 463,629 460,629 459,630 456,630 455,631 453,631 452,632 450,632 449,633 448,633 447,634 445,634 444,635 443,635 442,636 440,636 439,637 438,637 437,638 436,638 435,639 434,639 433,640 432,640 431,641 430,641 428,643 427,643 425,645 424,645 422,647 421,647 412,656 412,657 409,660 409,661 406,664 406,665 405,666 405,667 404,668 404,669 403,670 403,674 404,674 404,673 410,667 411,667 420,658 421,658 423,656 424,656 425,655 426,655 427,654 428,654 430,652 431,652 432,651 433,651 434,650 435,650 436,649 437,649 438,648 439,648 440,647 442,647 443,646 444,646 445,645 446,645 447,644 449,644 450,643 452,643 453,642 454,642 455,641 457,641 458,640 461,640 462,639 465,639 466,638 470,638 471,637 478,637 479,636 507,636 508,637 516,637 517,638 521,638 522,639 526,639 527,640 530,640 531,641 534,641 535,642 538,642 539,643 541,643 542,644 544,644 545,645 547,645 548,646 549,646 550,647 551,647 552,648 553,648 554,649 555,649 556,650 557,650 558,651 559,651 560,652 561,652 562,653 563,653 564,654 565,654 567,656 568,656 570,658 571,658 572,659 573,659 575,661 576,661 580,665 580,666 581,666 586,671 587,671 587,668 586,667 586,666 585,665 585,664 583,662 583,661 580,658 580,657 572,649 571,649 568,646 567,646 564,643 563,643 561,641 560,641 559,640 558,640 556,638 555,638 554,637 553,637 552,636 551,636 550,635 549,635 548,634 546,634 545,633 543,633 542,632 539,632 538,631 536,631 535,630 533,630 532,629 530,629 529,628 525,628 524,627 518,627 517,626 510,626 509,625 480,625" stroke="red" /><polyline fill="none" points="569,474 570,473 578,473 579,474 580,474 581,475 582,475 583,476 584,476 587,479 588,479 590,481 590,482 591,482 592,483 592,484 594,486 594,487 595,488 595,489 596,490 596,491 598,493 598,494 599,495 599,498 600,499 600,501 601,502 601,504 602,505 602,506 603,507 603,510 604,511 604,514 605,515 605,519 606,520 606,525 607,526 607,537 608,538 608,551 607,552 607,562 606,563 606,567 605,568 605,572 604,573 604,575 603,576 603,579 602,580 602,582 601,583 601,586 600,587 600,589 599,590 599,592 598,593 598,594 597,595 597,596 596,597 596,599 594,601 594,602 593,603 593,604 591,606 591,607 589,609 589,610 580,619 579,619 577,621 576,621 575,622 574,622 573,623 572,623 571,622 572,621 571,620 572,619 572,618 574,616 574,615 576,613 576,612 577,611 577,609 578,608 578,607 579,606 579,603 580,602 580,598 581,597 581,590 582,589 582,579 581,578 581,571 580,570 580,567 579,566 579,563 578,562 578,560 577,559 577,558 576,557 576,556 572,552 571,552 570,551 569,551 568,550 562,550 560,552 559,552 554,557 554,558 553,559 553,560 552,561 552,562 551,563 551,566 550,567 550,570 549,571 549,579 548,580 548,585 549,586 549,597 550,598 550,607 551,608 551,611 550,612 548,610 548,609 547,608 547,606 546,605 546,603 545,602 545,601 544,600 544,598 543,597 543,595 542,594 542,592 541,591 541,588 540,587 540,584 539,583 539,578 538,577 538,569 537,568 537,536 538,535 538,527 539,526 539,522 540,521 540,518 541,517 541,513 542,512 542,510 543,509 543,506 544,505 544,503 545,502 545,501 546,500 546,498 547,497 547,496 548,495 548,494 549,493 549,492 550,491 550,490 551,489 551,488 562,477 563,477 565,475 566,475 567,474 569,474" stroke="red" /><polyline fill="none" points="413,474 414,473 415,474 420,474 421,475 423,475 424,476 425,476 427,478 428,478 437,487 437,488 438,489 438,490 439,491 439,492 440,493 440,494 441,495 441,496 442,497 442,498 443,499 443,501 444,502 444,504 445,505 445,507 446,508 446,511 447,512 447,516 448,517 448,522 449,523 449,530 450,531 450,544 451,545 451,557 450,558 450,572 449,573 449,580 448,581 448,585 447,586 447,590 446,591 446,595 445,596 445,598 444,599 444,601 443,602 443,603 442,604 442,605 441,606 441,607 440,608 440,609 439,610 439,611 435,615 434,614 434,613 435,612 435,609 436,608 436,602 437,601 437,588 438,587 437,586 438,585 437,584 437,572 436,571 436,567 435,566 435,564 434,563 434,561 433,560 433,559 432,558 432,557 427,552 426,552 425,551 424,551 423,550 416,550 415,551 414,551 411,554 411,555 409,557 409,558 407,560 407,562 406,563 406,566 405,567 405,572 404,573 404,593 405,594 405,599 406,600 406,603 407,604 407,607 408,608 408,609 409,610 409,611 411,613 411,614 414,617 414,618 416,620 415,621 414,621 413,622 411,620 410,620 407,617 406,617 398,609 398,608 396,606 396,605 395,604 395,603 393,601 393,600 392,599 392,597 391,596 391,595 390,594 390,593 389,592 389,590 388,589 388,587 387,586 387,584 386,583 386,580 385,579 385,576 384,575 384,571 383,570 383,565 382,564 382,556 381,555 381,526 382,525 382,518 383,517 383,513 384,512 384,509 385,508 385,506 386,505 386,503 387,502 387,500 388,499 388,498 389,497 389,496 390,495 390,494 391,493 391,492 393,490 393,489 395,487 395,486 403,478 404,478 406,476 407,476 408,475 410,475 411,474 413,474" stroke="red" /></g><g id="layer_1"><polyline fill="none" points="482,653 481,654 475,654 474,655 471,655 470,656 467,656 466,657 463,657 462,658 460,658 459,659 458,659 457,660 455,660 454,661 453,661 452,662 450,662 449,663 448,663 446,665 445,665 444,666 443,666 441,668 440,668 430,678 430,679 428,681 428,682 427,683 427,685 426,686 426,687 425,688 425,690 424,691 424,697 425,698 425,702 424,703 423,702 423,701 420,704 420,705 418,707 418,710 419,711 418,712 418,713 419,714 419,720 420,721 420,724 422,726 422,727 424,729 424,730 425,730 426,731 426,732 428,734 428,735 430,737 430,738 431,738 432,739 432,740 433,740 435,742 436,742 443,749 444,749 445,750 446,750 447,751 448,751 449,752 450,752 451,753 452,753 453,754 454,754 455,755 456,755 457,756 458,756 459,757 461,757 462,758 464,758 465,759 467,759 468,760 472,760 473,761 476,761 477,762 484,762 485,763 508,763 509,762 516,762 517,761 521,761 522,760 525,760 526,759 528,759 529,758 531,758 532,757 534,757 535,756 536,756 537,755 538,755 539,754 540,754 541,753 542,753 543,752 544,752 545,751 546,751 547,750 548,750 549,749 550,749 552,747 553,747 554,746 555,746 558,743 559,743 569,733 569,732 573,728 573,727 574,726 574,721 575,720 575,709 574,708 574,706 573,705 573,704 571,702 571,701 570,700 570,699 569,699 568,698 568,691 567,690 567,687 566,686 566,685 565,684 565,683 564,682 564,681 563,680 563,679 561,677 561,676 553,668 552,668 550,666 549,666 547,664 546,664 545,663 543,663 542,662 541,662 540,661 539,661 538,660 537,660 536,659 535,659 534,658 531,658 530,657 527,657 526,656 524,656 523,655 518,655 517,654 513,654 512,653 482,653" stroke="green" /><polyline fill="none" points="571,463 570,464 567,464 566,465 564,465 563,466 561,466 560,467 559,467 557,469 556,469 554,471 553,471 548,476 548,477 545,480 545,481 543,483 543,484 542,485 542,486 540,488 540,489 539,490 539,492 538,493 538,494 537,495 537,496 536,497 536,499 535,500 535,502 534,503 534,506 533,507 533,510 532,511 532,514 531,515 531,519 530,520 530,525 529,526 529,534 528,535 528,567 529,568 529,576 530,577 530,582 531,583 531,587 532,588 532,591 533,592 533,596 534,597 534,599 535,600 535,602 536,603 536,605 537,606 537,607 538,608 538,609 539,610 539,611 540,612 540,613 541,614 541,615 543,617 543,618 547,622 547,623 549,625 550,625 552,627 553,627 555,629 556,629 557,630 558,630 559,631 561,631 562,632 564,632 565,633 573,633 574,632 576,632 577,631 578,631 579,630 580,630 582,628 583,628 584,627 585,627 587,625 588,625 594,619 594,618 597,615 597,614 599,612 599,611 601,609 601,608 602,607 602,606 604,604 604,602 605,601 605,600 606,599 606,597 607,596 607,595 608,594 608,592 609,591 609,589 610,588 610,586 611,585 611,582 612,581 612,578 613,577 613,573 614,572 614,566 615,565 615,558 616,557 616,525 615,524 615,517 614,516 614,513 613,512 613,509 612,508 612,505 611,504 611,501 610,500 610,498 609,497 609,495 608,494 608,493 607,492 607,490 606,489 606,488 604,486 604,485 602,483 602,482 600,480 600,479 598,477 598,476 592,470 591,470 589,468 588,468 587,467 586,467 585,466 584,466 583,465 581,465 580,464 578,464 577,463 571,463" stroke="green" /><polyline fill="none" points="415,463 414,464 409,464 408,465 406,465 405,466 404,466 403,467 402,467 401,468 400,468 398,470 397,470 388,479 388,480 386,482 386,483 384,485 384,486 383,487 383,488 382,489 382,490 381,491 381,493 380,494 380,495 379,496 379,497 378,498 378,500 377,501 377,503 376,504 376,506 375,507 375,510 374,511 374,516 373,517 373,522 372,523 372,532 371,533 371,552 372,553 372,560 373,561 373,566 374,567 374,571 375,572 375,577 376,578 376,581 377,582 377,585 378,586 378,588 379,589 379,591 380,592 380,594 381,595 381,596 382,597 382,598 383,599 383,601 384,602 384,603 385,604 385,605 386,606 386,607 388,609 388,610 390,612 390,613 392,615 392,616 394,618 394,619 402,627 403,627 405,629 406,629 407,630 408,630 409,631 410,631 411,632 413,632 414,633 426,633 427,632 428,632 429,631 430,631 431,630 432,630 433,629 434,629 435,628 436,628 441,623 441,622 444,619 444,618 445,617 445,616 447,614 447,613 448,612 448,610 449,609 449,608 450,607 450,606 451,605 451,604 452,603 452,601 453,600 453,597 454,596 454,594 455,593 455,590 456,589 456,585 457,584 457,580 458,579 458,573 459,572 459,565 460,564 460,534 459,533 459,526 458,525 458,519 457,518 457,514 456,513 456,510 455,509 455,505 454,504 454,502 453,501 453,499 452,498 452,497 451,496 451,494 450,493 450,491 449,490 449,489 448,488 448,487 446,485 446,484 445,483 445,482 443,480 443,479 432,468 431,468 430,467 429,467 428,466 427,466 426,465 424,465 423,464 418,464 417,463 415,463" stroke="green" /></g><g id="layer_2"><polyline fill="none" points="595,343 596,342 612,342 613,343 620,343 621,344 625,344 626,345 630,345 631,346 633,346 634,347 637,347 638,348 640,348 641,349 643,349 644,350 645,350 646,351 647,351 648,352 650,352 652,354 653,354 654,355 655,355 657,357 658,357 659,358 660,358 662,360 663,360 666,363 667,363 669,365 670,365 676,371 677,371 678,372 678,373 679,373 682,376 682,377 690,385 690,386 695,391 695,392 697,394 697,395 700,398 700,399 701,400 701,401 704,404 704,405 705,406 705,407 707,409 707,410 709,412 709,413 710,414 710,415 711,416 711,417 712,418 712,419 713,420 713,421 714,422 714,423 715,424 715,425 716,426 716,427 717,428 717,429 718,430 718,432 719,433 719,434 720,435 720,436 721,437 721,438 722,439 722,441 723,442 723,443 724,444 724,446 725,447 725,449 726,450 726,451 727,452 727,454 728,455 728,458 729,459 729,461 730,462 730,465 731,466 731,469 732,470 732,473 733,474 733,478 734,479 734,482 735,483 735,487 736,488 736,495 737,496 737,504 738,505 738,541 737,542 737,549 736,550 736,555 735,556 735,561 734,562 734,566 733,567 733,570 732,571 732,574 731,575 731,578 730,579 730,581 729,582 729,584 728,585 728,588 727,589 727,590 726,591 726,593 725,594 725,596 724,597 724,598 723,599 723,600 722,601 722,603 721,604 721,605 720,606 720,607 719,608 719,610 718,611 718,612 717,613 717,615 716,616 716,617 715,618 715,619 714,620 714,621 713,622 713,624 712,625 712,626 711,627 711,629 710,630 710,631 709,632 709,634 708,635 704,635 703,636 700,636 699,637 697,637 696,638 694,638 693,639 692,639 691,640 689,640 688,641 687,641 686,642 685,642 684,643 683,643 682,644 681,644 680,645 679,645 678,646 677,646 676,647 675,647 674,648 673,648 672,649 671,649 667,653 666,653 663,656 663,657 662,658 663,659 664,659 666,657 667,657 668,656 669,656 671,654 672,654 673,653 674,653 675,652 676,652 677,651 678,651 679,650 681,650 682,649 683,649 684,648 685,648 686,647 687,647 688,646 690,646 691,645 694,645 695,644 697,644 698,643 700,643 701,642 705,642 706,641 712,641 713,640 736,640 737,641 741,641 742,642 746,642 747,643 749,643 750,644 752,644 753,645 755,645 756,646 757,646 759,648 760,648 761,649 762,649 765,652 766,652 775,661 775,662 777,664 777,665 779,667 779,668 780,669 780,670 781,671 781,672 782,673 782,674 783,675 783,676 784,677 784,678 785,679 785,681 786,682 786,684 787,685 787,690 788,691 788,708 787,709 787,714 786,715 786,718 785,719 785,721 784,722 784,723 783,724 783,726 782,727 782,729 781,730 781,731 780,732 780,733 779,734 779,735 778,736 778,737 777,738 777,739 775,741 775,742 774,743 774,744 773,745 773,746 771,748 771,749 769,751 769,752 767,754 767,755 765,757 765,758 763,760 763,761 760,764 760,765 756,769 755,769 756,770 755,771 754,771 754,772 747,779 747,780 732,795 731,795 725,801 724,801 719,806 718,806 715,809 714,809 711,812 710,812 707,815 706,815 704,817 703,817 701,819 700,819 698,821 697,821 696,822 695,822 694,823 693,823 691,825 690,825 688,827 687,827 685,829 684,829 682,831 681,831 680,832 679,832 678,833 677,833 676,834 675,834 674,835 673,835 672,836 671,836 670,837 669,837 666,840 665,840 664,841 662,841 661,842 660,842 659,843 657,843 656,844 655,844 654,845 653,845 652,846 651,846 650,847 648,847 647,848 646,848 645,849 643,849 642,850 641,850 640,851 637,851 636,852 634,852 633,853 632,853 631,854 629,854 628,855 626,855 625,856 622,856 621,855 622,856 621,857 619,857 618,858 616,858 615,859 613,859 612,860 609,860 608,861 606,861 605,860 607,858 607,856 606,856 605,855 605,856 603,858 602,857 602,856 603,855 603,854 604,853 604,852 605,851 605,850 606,849 607,850 608,849 607,848 608,847 608,846 609,845 607,845 605,847 603,847 598,852 595,852 594,853 592,853 591,854 591,855 590,856 591,857 589,859 589,860 588,861 587,860 588,861 588,862 587,863 586,862 586,863 585,864 584,863 582,865 580,865 580,866 579,867 578,866 579,867 574,872 573,872 572,873 571,873 570,874 570,875 561,884 560,884 556,888 556,889 555,890 553,890 552,891 551,891 550,892 548,892 547,893 546,893 545,894 544,894 543,895 542,895 541,896 540,896 539,897 536,897 535,898 533,898 532,899 530,899 529,900 526,900 525,901 521,901 520,902 518,902 517,903 510,903 509,904 505,904 504,905 503,904 502,904 501,905 487,905 486,906 485,906 484,905 482,905 481,904 478,904 477,903 476,903 475,902 473,902 472,901 471,901 470,900 468,900 467,899 465,899 464,898 462,898 461,897 459,897 457,895 454,895 453,896 452,895 452,893 451,893 450,892 448,892 447,891 446,891 444,889 442,889 441,888 441,887 440,887 438,885 437,885 435,883 434,883 430,879 429,879 420,870 420,869 419,869 417,867 416,867 417,867 418,868 418,869 417,870 417,871 416,872 411,867 411,866 408,863 408,862 405,859 405,858 403,856 403,855 402,854 402,853 401,853 399,851 399,850 398,849 397,849 395,847 394,847 393,846 381,846 379,848 376,848 375,849 375,852 376,852 377,853 376,854 376,855 377,855 378,856 377,857 375,857 374,856 373,856 372,855 371,855 370,854 368,854 367,853 365,853 364,852 362,852 361,851 360,851 359,850 358,850 357,849 356,849 355,848 354,848 353,847 351,847 350,846 349,846 348,845 347,845 346,844 345,844 344,843 343,843 342,842 341,842 340,841 339,841 338,840 337,840 336,839 335,839 334,838 333,838 332,837 331,837 330,836 329,836 328,835 327,835 326,834 325,834 323,832 322,832 320,830 319,830 318,829 317,829 316,828 315,828 313,826 312,826 310,824 309,824 306,821 305,821 303,819 302,819 298,815 297,815 295,813 294,813 291,810 290,810 286,806 285,806 278,799 277,799 272,794 271,794 265,788 265,787 262,784 262,783 261,783 256,778 256,777 251,772 251,771 248,768 248,767 244,763 244,762 242,760 242,759 240,757 240,756 238,754 238,753 237,752 237,751 235,749 235,748 234,747 234,746 233,745 233,744 232,743 232,742 231,741 231,740 230,739 230,738 229,737 229,736 228,735 228,734 227,733 227,732 226,731 226,729 225,728 225,727 224,726 224,724 223,723 223,721 222,720 222,717 221,716 221,714 220,713 220,708 219,707 219,689 220,688 220,685 221,684 221,682 222,681 222,679 223,678 223,677 224,676 224,674 225,673 225,672 226,671 226,670 227,669 227,668 229,666 229,665 233,661 233,660 237,656 238,656 244,650 245,650 247,648 248,648 249,647 251,647 252,646 253,646 254,645 256,645 257,644 259,644 260,643 262,643 263,642 267,642 268,641 286,641 287,642 292,642 293,643 297,643 298,644 300,644 301,645 303,645 304,646 306,646 307,647 309,647 310,648 312,648 313,649 315,649 316,650 317,650 319,652 320,652 321,653 322,653 323,654 324,654 326,656 327,656 328,657 329,657 331,659 333,659 333,658 327,652 326,652 324,650 323,650 321,648 320,648 319,647 318,647 316,645 315,645 314,644 313,644 312,643 310,643 309,642 308,642 307,641 305,641 304,640 303,640 302,639 300,639 299,638 297,638 296,637 294,637 293,636 292,637 291,636 291,635 290,634 290,633 289,632 289,631 288,630 288,629 287,628 287,627 286,626 286,624 285,623 285,622 284,621 284,620 283,619 283,618 282,617 282,616 281,615 281,613 280,612 280,610 279,609 279,608 278,607 278,605 277,604 277,603 276,602 276,600 275,599 275,597 274,596 274,593 273,592 273,589 272,588 272,586 271,585 271,580 270,579 270,574 269,573 269,568 268,567 268,559 267,558 267,545 266,544 266,518 267,517 267,507 268,506 268,500 269,499 269,493 270,492 270,488 271,487 271,484 272,483 272,480 273,479 273,475 274,474 274,471 275,470 275,468 276,467 276,465 277,464 277,462 278,461 278,458 279,457 279,455 280,454 280,452 281,451 281,450 282,449 282,447 283,446 283,445 284,444 284,442 285,441 285,440 286,439 286,438 287,437 287,436 288,435 288,434 289,433 289,431 290,430 290,429 291,428 291,427 292,426 292,425 293,424 293,423 294,422 294,421 296,419 296,418 297,417 297,416 298,415 298,414 299,413 299,412 301,410 301,409 303,407 303,406 305,404 305,403 307,401 307,400 310,397 310,396 313,393 313,392 317,388 317,387 336,368 337,368 339,366 340,366 343,363 344,363 346,361 347,361 348,360 349,360 351,358 352,358 353,357 354,357 355,356 356,356 357,355 358,355 359,354 361,354 362,353 363,353 364,352 365,352 366,351 367,351 368,350 370,350 371,349 373,349 374,348 376,348 377,347 381,347 382,346 385,346 386,345 392,345 393,344 411,344 412,345 419,345 420,346 423,346 424,347 427,347 428,348 430,348 431,349 433,349 434,350 436,350 437,351 438,351 439,352 440,352 441,353 443,353 444,354 445,354 446,355 447,355 448,356 449,356 450,357 451,357 453,359 454,359 455,360 456,360 457,361 458,361 460,363 461,363 463,365 464,365 469,370 470,370 477,377 477,378 481,382 481,383 484,386 484,387 486,389 486,390 487,391 487,392 489,394 489,395 490,396 490,397 491,398 491,399 492,400 492,401 493,402 493,403 494,404 494,405 495,406 495,407 496,408 496,410 497,411 497,413 498,414 498,416 499,417 500,417 501,416 501,415 502,414 502,413 503,412 503,411 504,410 504,408 505,407 505,406 506,405 506,404 507,403 507,402 508,401 508,400 509,399 509,398 511,396 511,395 513,393 513,392 515,390 515,389 519,385 519,384 526,377 526,376 527,375 528,375 536,367 537,367 542,362 543,362 545,360 546,360 548,358 549,358 550,357 551,357 552,356 553,356 555,354 556,354 557,353 558,353 559,352 560,352 561,351 563,351 564,350 565,350 566,349 568,349 569,348 572,348 573,347 575,347 576,346 578,346 579,345 582,345 583,344 588,344 589,343 595,343" stroke="blue" /></g><g id="layer_6" stroke="black"><polyline fill="none" points="771,98 770,99 762,99 761,100 756,100 755,101 749,101 748,102 743,102 742,103 740,103 739,104 736,104 735,105 732,105 731,106 729,106 728,107 727,107 726,108 723,108 722,109 721,109 720,110 719,110 718,111 716,111 715,112 713,112 711,114 709,114 708,115 707,115 706,116 705,116 703,118 701,118 699,120 698,120 697,121 696,121 695,122 694,122 692,124 691,124 690,125 689,125 687,127 686,127 683,130 682,130 680,132 679,132 677,134 676,134 672,138 671,138 656,153 656,154 652,158 652,159 649,162 649,163 646,166 646,167 644,169 644,170 642,172 642,173 640,175 640,176 639,177 639,178 638,179 638,180 637,181 637,182 636,183 636,184 635,185 635,186 634,187 634,188 633,189 633,191 631,193 631,194 630,195 630,197 629,198 629,199 628,200 628,201 627,202 627,204 626,205 626,208 625,209 625,210 624,211 624,214 623,215 623,220 622,221 622,225 621,226 621,233 620,234 620,278 621,279 621,285 622,286 622,289 623,290 623,295 624,296 624,299 625,300 625,302 626,303 626,307 627,308 627,310 628,311 628,312 629,313 629,317 627,319 626,318 625,318 624,317 623,317 622,316 620,316 619,315 618,315 616,313 614,313 613,312 611,312 610,311 609,311 608,310 606,310 605,309 602,309 601,308 600,308 599,307 597,307 596,306 592,306 591,305 589,305 588,304 587,304 586,303 582,303 581,302 578,302 577,301 575,301 574,300 569,300 568,299 566,299 565,298 562,298 561,297 556,297 555,296 550,296 549,295 542,295 541,294 531,294 530,293 515,293 514,292 495,292 494,293 475,293 474,294 465,294 464,295 460,295 459,296 455,296 454,297 448,297 447,298 444,298 443,299 440,299 439,300 435,300 434,301 430,301 429,302 427,302 426,303 422,303 421,304 419,304 418,305 416,305 415,306 412,306 411,307 410,307 409,308 407,308 406,309 404,309 403,310 402,310 401,311 400,311 399,312 397,312 396,313 394,313 393,314 392,314 391,315 390,315 389,316 386,316 385,317 384,317 382,315 382,313 383,312 383,309 384,308 384,303 385,302 385,300 386,299 386,296 387,295 387,289 388,288 388,285 389,284 389,278 390,277 390,234 389,233 389,228 388,227 388,223 387,222 387,216 386,215 386,212 385,211 385,210 384,209 384,205 383,204 383,202 382,201 382,200 381,199 381,197 380,196 380,194 379,193 379,192 378,191 378,190 377,189 377,188 376,187 376,186 375,185 375,184 374,183 374,182 373,181 373,180 371,178 371,177 369,175 369,174 368,173 368,172 365,169 365,168 364,167 364,166 361,163 361,162 358,159 358,158 348,148 348,147 347,147 345,145 345,144 344,144 337,137 336,137 333,134 332,134 329,131 328,131 325,128 324,128 323,127 322,127 320,125 319,125 318,124 317,124 315,122 314,122 313,121 312,121 311,120 310,120 309,119 308,119 307,118 306,118 305,117 304,117 303,116 302,116 301,115 300,115 299,114 296,114 295,113 294,113 293,112 292,112 291,111 287,111 286,110 285,110 284,109 282,109 281,108 277,108 276,107 273,107 272,106 270,106 269,105 264,105 263,104 256,104 255,103 248,103 247,102 216,102 215,103 207,103 206,104 200,104 199,105 193,105 192,106 190,106 189,107 186,107 185,108 181,108 180,109 178,109 177,110 175,110 174,111 171,111 170,112 169,112 168,113 167,113 166,114 164,114 163,115 161,115 159,117 157,117 156,118 154,118 152,120 151,120 150,121 148,121 147,122 146,122 145,123 144,123 143,124 142,124 141,125 140,125 138,127 137,127 136,128 135,128 133,130 132,130 131,131 130,131 128,133 127,133 126,134 125,134 123,136 122,136 120,138 119,138 117,140 116,140 113,143 112,143 109,146 108,146 104,150 103,150 97,156 96,156 87,165 86,165 85,166 85,167 73,179 73,180 70,183 70,184 66,188 66,189 63,192 63,193 60,196 60,197 58,199 58,200 57,201 57,202 54,205 54,206 53,207 53,208 51,210 51,211 50,212 50,213 48,215 48,216 47,217 47,219 45,221 45,222 44,223 44,225 42,227 42,228 41,229 41,230 40,231 40,232 39,233 39,234 38,235 38,237 37,238 37,239 36,240 36,241 35,242 35,244 34,245 34,247 33,248 33,249 32,250 32,252 31,253 31,255 30,256 30,257 29,258 29,261 28,262 28,265 27,266 27,268 26,269 26,271 25,272 25,278 24,279 24,281 23,282 23,286 22,287 22,299 21,300 21,332 22,333 22,343 23,344 23,349 24,350 24,354 25,355 25,359 26,360 26,362 27,363 27,365 28,366 28,369 29,370 29,372 30,373 30,374 31,375 31,378 32,379 32,380 34,382 34,384 35,385 35,386 36,387 36,388 37,389 37,390 38,391 38,393 40,395 40,396 41,397 41,398 42,399 42,400 44,402 44,404 47,407 47,408 48,409 48,410 50,412 50,413 52,415 52,416 54,418 54,419 58,423 58,424 63,429 63,430 78,445 79,445 80,446 80,447 81,447 84,450 85,450 87,452 88,452 91,455 92,455 95,458 96,458 98,460 99,460 100,461 101,461 103,463 104,463 105,464 106,464 108,466 109,466 110,467 111,467 112,468 113,468 114,469 115,469 116,470 118,470 119,471 120,471 121,472 122,472 123,473 125,473 126,474 127,474 128,475 129,475 130,476 132,476 133,477 135,477 136,478 138,478 139,479 142,479 143,480 149,480 150,481 152,481 153,482 156,482 157,483 166,483 167,484 198,484 199,483 208,483 209,482 212,482 213,481 215,481 216,480 220,480 221,479 224,479 225,478 227,478 228,477 230,477 232,479 231,480 231,481 230,482 230,484 229,485 229,487 227,489 227,491 226,492 226,495 225,496 225,497 224,498 224,500 223,501 223,504 222,505 222,506 221,507 221,510 220,511 220,514 219,515 219,517 218,518 218,521 217,522 217,527 216,528 216,531 215,532 215,534 214,535 214,541 213,542 213,546 212,547 212,551 211,552 211,561 210,562 210,571 209,572 209,608 210,609 210,617 211,618 211,626 212,627 212,631 213,632 213,636 214,637 214,643 215,644 215,647 216,648 216,652 217,653 217,657 216,658 216,660 214,662 214,664 213,665 213,666 212,667 212,668 211,669 211,671 210,672 210,674 209,675 209,676 208,677 208,681 207,682 207,690 206,691 206,706 207,707 207,715 208,716 208,721 209,722 209,724 210,725 210,728 211,729 211,731 212,732 212,733 213,734 213,736 214,737 214,739 215,740 215,741 216,742 216,743 217,744 217,745 218,746 218,747 220,749 220,751 222,753 222,754 223,755 223,756 224,757 224,758 226,760 226,761 228,763 228,764 230,766 230,767 233,770 233,771 236,774 236,775 240,779 240,780 245,785 245,786 255,796 255,797 258,800 259,800 269,810 270,810 276,816 277,816 280,819 281,819 284,822 285,822 288,825 289,825 292,828 293,828 296,831 297,831 298,832 299,832 302,835 303,835 305,837 306,837 307,838 308,838 311,841 312,841 313,842 314,842 315,843 316,843 318,845 320,845 322,847 323,847 324,848 325,848 327,850 328,850 329,851 331,851 332,852 333,852 335,854 337,854 338,855 339,855 340,856 341,856 342,857 343,857 344,858 346,858 347,859 348,859 349,860 350,860 351,861 353,861 354,862 355,862 356,863 357,863 358,864 360,864 361,865 362,865 363,866 365,866 366,867 368,867 369,868 370,868 371,869 372,869 373,870 376,870 377,871 379,871 380,872 381,872 382,873 385,873 386,874 389,874 390,875 391,875 392,876 396,876 397,877 400,877 401,878 402,878 403,879 404,879 405,880 406,880 409,883 409,884 416,891 416,892 417,892 418,893 418,894 419,895 420,895 425,900 426,900 429,903 430,903 433,906 434,906 436,908 437,908 438,909 439,909 441,911 442,911 443,912 444,912 445,913 446,913 447,914 448,914 449,915 451,915 452,916 453,916 455,918 458,918 459,919 460,919 461,920 463,920 464,921 468,921 469,922 473,922 474,923 478,923 479,924 491,924 492,925 505,925 506,924 520,924 521,923 524,923 525,922 530,922 531,921 535,921 536,920 538,920 539,919 540,919 541,918 544,918 545,917 546,917 547,916 548,916 549,915 550,915 551,914 552,914 553,913 554,913 555,912 556,912 557,911 558,911 560,909 561,909 562,908 563,908 565,906 566,906 568,904 569,904 574,899 575,899 595,879 596,879 598,877 600,877 601,876 603,876 604,875 606,875 607,874 610,874 611,873 615,873 616,872 617,872 618,871 621,871 622,870 625,870 626,869 628,869 629,868 630,868 631,867 634,867 635,866 637,866 638,865 639,865 640,864 642,864 643,863 645,863 646,862 647,862 648,861 650,861 651,860 652,860 653,859 654,859 655,858 657,858 658,857 660,857 662,855 663,855 664,854 666,854 667,853 668,853 669,852 670,852 671,851 673,851 675,849 676,849 677,848 678,848 679,847 680,847 681,846 682,846 683,845 684,845 685,844 686,844 687,843 688,843 690,841 691,841 692,840 693,840 695,838 696,838 697,837 698,837 700,835 701,835 702,834 703,834 706,831 707,831 709,829 710,829 713,826 714,826 716,824 717,824 720,821 721,821 724,818 725,818 730,813 731,813 740,804 741,804 758,787 758,786 767,777 767,776 771,772 771,771 773,769 773,768 776,765 776,764 778,762 778,761 780,759 780,758 782,756 782,755 784,753 784,752 785,751 785,750 787,748 787,746 788,745 788,744 790,742 790,740 791,739 791,738 792,737 792,736 793,735 793,733 794,732 794,730 795,729 795,728 796,727 796,725 797,724 797,721 798,720 798,718 799,717 799,710 800,709 800,687 799,686 799,680 798,679 798,677 797,676 797,673 796,672 796,670 795,669 795,668 794,667 794,665 793,664 793,663 791,661 791,659 790,658 790,651 791,650 791,647 792,646 792,644 793,643 793,639 794,638 794,634 795,633 795,628 796,627 796,621 797,620 797,614 798,613 798,606 799,605 799,556 798,555 798,548 797,547 797,539 796,538 796,532 795,531 795,528 794,527 794,524 793,523 793,518 792,517 792,515 791,514 791,512 790,511 790,507 789,506 789,505 788,504 788,502 787,501 787,497 786,496 786,495 785,494 785,493 784,492 784,489 783,488 783,487 782,486 782,485 781,484 781,481 780,480 780,479 779,478 779,476 778,475 778,473 780,471 781,471 782,472 784,472 785,473 790,473 791,474 796,474 797,475 801,475 802,476 809,476 810,477 822,477 823,478 835,478 836,477 849,477 850,476 857,476 858,475 861,475 862,474 866,474 867,473 872,473 873,472 875,472 876,471 878,471 879,470 882,470 883,469 884,469 885,468 886,468 887,467 890,467 891,466 892,466 893,465 894,465 895,464 896,464 897,463 898,463 899,462 900,462 901,461 902,461 903,460 904,460 905,459 906,459 907,458 908,458 909,457 910,457 912,455 913,455 914,454 915,454 918,451 919,451 921,449 922,449 924,447 925,447 928,444 929,444 932,441 933,441 953,421 953,420 957,416 957,415 960,412 960,411 963,408 963,407 966,404 966,403 967,402 967,401 969,399 969,398 970,397 970,396 972,394 972,393 973,392 973,390 975,388 975,387 976,386 976,384 978,382 978,381 979,380 979,378 980,377 980,376 981,375 981,374 982,373 982,371 983,370 983,368 985,366 985,362 986,361 986,359 987,358 987,357 988,356 988,353 989,352 989,348 990,347 990,345 991,344 991,338 992,337 992,285 991,284 991,277 990,276 990,272 989,271 989,266 988,265 988,260 987,259 987,258 986,257 986,254 985,253 985,250 984,249 984,247 983,246 983,245 982,244 982,241 981,240 981,238 980,237 980,236 979,235 979,233 978,232 978,231 977,230 977,229 976,228 976,226 975,225 975,224 974,223 974,222 973,221 973,220 972,219 972,217 970,215 970,214 969,213 969,212 968,211 968,210 966,208 966,207 965,206 965,205 963,203 963,202 961,200 961,199 960,198 960,197 957,194 957,193 955,191 955,190 953,188 953,187 950,184 950,183 946,179 946,178 941,173 941,172 920,151 919,151 914,146 913,146 910,143 909,143 906,140 905,140 902,137 901,137 898,134 897,134 895,132 894,132 893,131 892,131 890,129 889,129 887,127 886,127 884,125 883,125 882,124 881,124 879,122 878,122 877,121 876,121 875,120 874,120 873,119 872,119 871,118 870,118 869,117 868,117 867,116 866,116 865,115 864,115 863,114 861,114 860,113 859,113 858,112 857,112 856,111 854,111 853,110 851,110 850,109 849,109 848,108 845,108 844,107 842,107 841,106 840,106 839,105 835,105 834,104 830,104 829,103 826,103 825,102 821,102 820,101 813,101 812,100 808,100 807,99 797,99 796,98 771,98" /></g></svg>